<?xml version="1.0" encoding="utf-8"?>
<!-- Generator: Adobe Illustrator 15.1.0, SVG Export Plug-In . SVG Version: 6.00 Build 0)  -->
<!DOCTYPE svg PUBLIC "-//W3C//DTD SVG 1.1//EN" "http://www.w3.org/Graphics/SVG/1.1/DTD/svg11.dtd">
<svg version="1.1"
	 id="svg2" inkscape:version="0.91 r13725" sodipodi:docname="mainmenu.svg" inkscape:export-xdpi="90" inkscape:export-ydpi="90" inkscape:export-filename="./lxqt_icon_48.png" xmlns:dc="http://purl.org/dc/elements/1.1/" xmlns:cc="http://creativecommons.org/ns#" xmlns:rdf="http://www.w3.org/1999/02/22-rdf-syntax-ns#" xmlns:svg="http://www.w3.org/2000/svg" xmlns:sodipodi="http://sodipodi.sourceforge.net/DTD/sodipodi-0.dtd" xmlns:inkscape="http://www.inkscape.org/namespaces/inkscape"
	 xmlns="http://www.w3.org/2000/svg" xmlns:xlink="http://www.w3.org/1999/xlink" x="0px" y="0px" width="48px" height="48px"
	 viewBox="0 0 48 48" enable-background="new 0 0 48 48" xml:space="preserve">
<rect fill="#2D313C" width="48" height="48"/>
<sodipodi:namedview  id="base" inkscape:pageopacity="0.0" inkscape:pageshadow="2" inkscape:document-units="px" inkscape:current-layer="layer2" inkscape:showpageshadow="false" inkscape:snap-bbox="true" inkscape:snap-page="true" inkscape:window-width="1440" inkscape:window-height="841" inkscape:window-x="0" inkscape:window-y="0" inkscape:object-paths="false" inkscape:object-nodes="true" inkscape:snap-nodes="true" inkscape:guide-bbox="true" inkscape:bbox-paths="false" inkscape:bbox-nodes="true" inkscape:snap-global="true" fit-margin-right="0" fit-margin-bottom="0" inkscape:snap-grids="true" inkscape:window-maximized="1" inkscape:snap-bbox-edge-midpoints="false" inkscape:snap-smooth-nodes="false" inkscape:cy="25.000001" pagecolor="#ffffff" showgrid="true" bordercolor="#666666" borderlayer="true" showguides="true" borderopacity="1.0" inkscape:zoom="6.515625" inkscape:cx="24" fit-margin-top="0" fit-margin-left="0">
	
		<inkscape:grid  type="xygrid" enabled="true" visible="true" originy="0px" originx="0px" id="grid3064" snapvisiblegridlinesonly="true" empspacing="5">
		</inkscape:grid>
</sodipodi:namedview>
<title  id="title4078">LXQt</title>
<g>
	<g>
		<g>
			<path fill="#FFA400" d="M23.882-0.082c-10,0-18.112,8.006-18.112,17.881c0,9.875,8.11,17.878,18.112,17.878
				c10.004,0,18.112-8.003,18.112-17.878C41.994,7.924,33.887-0.082,23.882-0.082z M23.882,33.725
				c-8.908,0-16.13-7.131-16.13-15.925c0-8.795,7.223-15.925,16.13-15.925c8.909,0,16.131,7.13,16.131,15.925
				C40.014,26.594,32.791,33.725,23.882,33.725z"/>
			<path fill="#FFA400" d="M17.091,24.504h13.583v-13.41H17.091V24.504z M19.072,13.049h9.623v9.499h-9.623V13.049z"/>
		</g>
		<path fill="#FFA400" d="M26.615,8.107c0.18-0.46,0.346-1.198,0.492-1.453c0.045-0.071,0.096-0.14,0.166-0.203
			c0.045-0.031,0.07-0.058,0.07-0.083c0-0.119-0.088-0.2-0.273-0.24c-0.443-0.087-1.422-0.132-2.913-0.132c-0.181,0-0.351,0-0.521,0
			l0.313-1.136c0.064,0,0.135,0,0.207,0c0.688,0,1.366,0.02,2.049,0.059c0.67,0.059,1.146,0.085,1.42,0.085
			c0.16,0,0.27-0.071,0.338-0.216c0.092-0.197,0.131-0.39,0.131-0.574c0-0.085-0.131-0.142-0.396-0.156
			c-0.922-0.054-2.057-0.082-3.397-0.082c-2.705,0-4.222,0.06-4.546,0.189c-0.119,0.104-0.183,0.278-0.183,0.516
			c0,0.279,0.143,0.418,0.428,0.418c0.105,0,0.319-0.023,0.639-0.073c0.495-0.071,1.185-0.119,2.077-0.143L22.4,6.009
			c-1.262,0.017-2.029,0.059-2.3,0.13c-0.197,0.066-0.296,0.205-0.296,0.42c0,0.126,0.043,0.235,0.134,0.321
			c0.083,0.097,0.167,0.145,0.257,0.145c0.112,0,0.335-0.027,0.676-0.084c0.235-0.032,0.627-0.061,1.176-0.084l-0.341,1.237
			c-1.147,0.108-2.112,0.308-2.893,0.612c-0.286,0.064-0.422,0.251-0.422,0.561c0,0.095,0.046,0.195,0.142,0.299
			c0.117,0.112,0.225,0.167,0.327,0.167c0.392,0,0.224,0.014,0.788-0.19c1.188-0.365,2.487-0.549,3.905-0.549
			c1.329,0,2.706,0.135,4.116,0.406c0.447,0.094,0.764,0.143,0.949,0.143c0.166,0,0.314-0.1,0.445-0.297
			c0.188-0.272,0.289-0.575,0.311-0.909C28.379,8.236,27.455,8.162,26.615,8.107z M25.656,7.063
			c-0.117,0.205-0.221,0.786-0.314,0.985c-0.588-0.023-1.12-0.036-1.598-0.036c-0.263,0-0.521,0.004-0.761,0.012l0.312-1.188
			c0.269,0,0.555,0,0.863,0c1.014,0,1.528,0.045,1.528,0.142C25.684,6.992,25.674,7.021,25.656,7.063z"/>
		<path fill="#FFA400" d="M36.25,15.794c0.143,0,0.404-0.164,0.773-0.49c0.242-0.208,0.365-0.435,0.365-0.683
			c0-0.111-0.043-0.217-0.133-0.311c-0.063-0.07-0.16-0.108-0.289-0.108c-0.387,0-0.621,0.083-0.695,0.251
			c-0.232,0.471-0.352,0.788-0.352,0.958C35.92,15.668,36.031,15.794,36.25,15.794z M36.492,20.04l0.012-0.74
			c0.18,0,0.361,0,0.559,0c0.09,0,0.264,0.007,0.533,0.022c0.139,0.009,0.256,0.014,0.365,0.014c0.094,0,0.166-0.042,0.209-0.119
			c0.047-0.113,0.07-0.229,0.07-0.348c0-0.086-0.031-0.137-0.098-0.142c-0.156-0.026-0.309-0.036-0.473-0.036h-1.164l0.01-0.756
			c0.18,0,0.363,0,0.551,0c0.088,0,0.26,0.011,0.531,0.025c0.139,0.015,0.258,0.024,0.365,0.024c0.094,0,0.166-0.044,0.209-0.133
			c0.047-0.102,0.072-0.215,0.072-0.332c0-0.091-0.033-0.138-0.098-0.145c-0.156-0.031-0.313-0.048-0.475-0.048h-1.154l0.016-0.741
			c0.258,0,0.537,0,0.813,0c0.109,0,0.314,0.013,0.623,0.045c0.162,0.035,0.307,0.047,0.424,0.047c0.113,0,0.189-0.052,0.244-0.154
			c0.055-0.135,0.076-0.272,0.076-0.407c0-0.136-0.029-0.21-0.104-0.228c-0.18-0.04-0.359-0.059-0.545-0.059
			c-1.818,0-3.23,0.023-4.246,0.071c0-0.065,0-0.126,0-0.19c0.139-0.086,0.279-0.184,0.43-0.29c0.773-0.557,1.164-0.963,1.164-1.218
			c0-0.157-0.1-0.24-0.293-0.24c-0.107,0-0.27,0.075-0.49,0.227c-1.063,0.728-1.783,1.089-2.152,1.089
			c-0.166,0-0.244-0.048-0.244-0.144c-0.348,0.188-0.543,0.43-0.602,0.734l0.021,0.295c0.066,0.089,0.195,0.133,0.383,0.133
			c0.211,0,0.42-0.028,0.646-0.085c0.016,0.463,0.023,1.182,0.023,2.156c0,1.354-0.066,2.29-0.197,2.799
			c0.213,0.31,0.432,0.467,0.668,0.467c0.268,0,0.447-0.201,0.545-0.6c0.559-0.071,1.246-0.107,2.07-0.107
			c0.867,0,1.598,0.043,2.195,0.13c0.252,0.041,0.43,0.06,0.545,0.06c0.293,0,0.484-0.326,0.572-0.981
			C38.525,20.081,37.656,20.051,36.492,20.04z M35.406,16.596l0.006,0.729H33.84c-0.012-0.255-0.016-0.492-0.016-0.707
			C34.303,16.604,34.832,16.596,35.406,16.596z M35.426,17.949v0.742H33.84c0-0.241,0-0.472,0-0.695
			C34.314,17.971,34.844,17.956,35.426,17.949z M35.436,20.04c-0.604,0.011-1.148,0.033-1.621,0.075
			c0.01-0.226,0.014-0.482,0.025-0.768c0.484-0.015,1.012-0.027,1.596-0.035V20.04z"/>
		<path fill="#FFA400" d="M15.301,17.756c-0.554-0.039-1.219-0.063-1.988-0.072c0-0.016,0-0.032,0-0.048v-1.208
			c0.308,0.008,0.593,0.028,0.852,0.06c0.297,0.017,0.521,0.022,0.666,0.022c0.169,0,0.299-0.071,0.386-0.215
			c0.057-0.149,0.084-0.359,0.084-0.622c0-0.03-0.126-0.046-0.374-0.046h-3.455c-0.098,0-0.146-0.016-0.146-0.047
			c0.319-0.51,0.476-0.915,0.476-1.208c0-0.101-0.089-0.199-0.259-0.287c-0.157-0.096-0.406-0.144-0.74-0.144
			c-0.204,0-0.361,0.034-0.468,0.098c0.097,0.094,0.142,0.207,0.142,0.333c0,0.263-0.075,0.535-0.242,0.815
			c-0.218,0.559-0.326,0.894-0.326,1.003c0,0.249,0.142,0.372,0.424,0.372c0.088,0,0.278-0.014,0.567-0.049
			c0.404-0.038,0.833-0.066,1.287-0.083v1.257c-1.534,0.013-2.402,0.08-2.607,0.192c-0.096,0.084-0.142,0.242-0.142,0.465
			c0,0.248,0.123,0.371,0.374,0.371c0.074,0,0.228-0.021,0.46-0.061c0.414-0.072,1.034-0.111,1.865-0.118
			c-0.103,0.643-0.369,1.132-0.785,1.459c-0.421,0.327-0.917,0.489-1.492,0.489c-0.091,0-0.154-0.027-0.196-0.084
			c-0.188,0.238-0.278,0.502-0.278,0.791c0,0.312,0.189,0.465,0.57,0.465c0.96,0,1.756-0.325,2.391-0.967
			c0.149-0.177,0.284-0.372,0.396-0.59c0.1,0.129,0.265,0.246,0.507,0.35c1.028,0.398,1.648,0.597,1.869,0.597
			c0.218,0,0.328-0.109,0.328-0.323c0-0.192-0.351-0.509-1.046-0.945c-0.604-0.399-1.032-0.601-1.281-0.601
			c0.056-0.198,0.097-0.413,0.131-0.644c0.301,0.006,0.599,0.024,0.898,0.047c0.461,0.057,0.784,0.083,0.971,0.083
			c0.153,0,0.263-0.071,0.328-0.216c0.095-0.198,0.148-0.39,0.148-0.571C15.598,17.803,15.494,17.764,15.301,17.756z"/>
		<path fill="#FFA400" d="M28.311,30.207c-0.389,0-1.336-0.113-2.846-0.323c-0.402-0.081-0.799-0.155-1.176-0.229l0.014-1.403
			c0.364-0.006,0.668-0.01,0.909-0.01c0.268,0,0.57,0.004,0.906,0.01c0.357,0.019,0.6,0.024,0.734,0.024
			c0.109,0,0.209-0.044,0.301-0.129c0.078-0.115,0.121-0.234,0.121-0.372c0-0.147-0.047-0.242-0.133-0.289
			c-0.09-0.034-0.268-0.048-0.535-0.048H24.31l0.015-1.371c0-0.158-0.066-0.279-0.192-0.36c-0.139-0.074-0.298-0.112-0.479-0.112
			c-0.181,0-0.321,0.042-0.421,0.131c-0.096,0.095-0.139,0.208-0.139,0.342l-0.027,3.395c-0.687-0.104-1.32-0.174-1.893-0.202
			c0.212-0.416,0.313-0.787,0.313-1.112c0-0.247-0.087-0.372-0.275-0.372c-0.186,0-0.311,0.093-0.386,0.276
			c-0.283,0.606-0.648,1.079-1.093,1.422c-0.378,0.295-0.712,0.44-0.994,0.44c-0.072,0-0.129-0.014-0.182-0.034
			c-0.128,0.2-0.193,0.461-0.193,0.788c0,0.313,0.126,0.468,0.375,0.468c0.396,0,0.798-0.125,1.212-0.384
			c0.297-0.203,0.557-0.448,0.786-0.743c2.357,0.168,4.579,0.646,6.667,1.437c0.443,0.137,0.729,0.206,0.863,0.206
			c0.219,0,0.453-0.136,0.688-0.408c0.252-0.317,0.4-0.681,0.447-1.091C29.012,30.187,28.648,30.207,28.311,30.207z"/>
	</g>
	<g>
		<path fill="#FFA400" d="M10.515,45.422c-0.167,0.304-0.384,0.516-0.648,0.643c-0.265,0.129-0.569,0.194-0.91,0.194
			c-0.503,0-0.892-0.126-1.162-0.388c-0.271-0.263-0.407-0.697-0.407-1.31v-4.514h1.581v4.199c0,0.317,0.055,0.535,0.159,0.664
			c0.11,0.123,0.279,0.19,0.517,0.19c0.554,0,0.831-0.34,0.831-1.008v-4.046h1.582v6.085h-1.517v-0.715h-0.024V45.422z"/>
		<path fill="#FFA400" d="M14.269,44.348c0,0.263,0.07,0.477,0.211,0.635c0.144,0.165,0.348,0.242,0.618,0.242
			c0.244,0,0.438-0.057,0.584-0.18c0.146-0.113,0.22-0.299,0.22-0.537c0-0.198-0.059-0.348-0.172-0.446
			c-0.113-0.102-0.248-0.183-0.399-0.243l-1.11-0.394c-0.436-0.151-0.762-0.363-0.984-0.638c-0.22-0.275-0.33-0.626-0.33-1.051
			c0-0.25,0.042-0.486,0.125-0.707c0.085-0.222,0.219-0.418,0.401-0.579c0.182-0.166,0.416-0.301,0.7-0.396
			c0.286-0.098,0.632-0.146,1.033-0.146c0.717,0,1.244,0.151,1.587,0.448c0.343,0.303,0.516,0.729,0.516,1.276v0.248h-1.415
			c0-0.314-0.052-0.549-0.156-0.694c-0.103-0.147-0.283-0.225-0.542-0.225c-0.199,0-0.372,0.057-0.52,0.166
			c-0.151,0.108-0.225,0.271-0.225,0.486c0,0.151,0.047,0.289,0.144,0.408c0.095,0.121,0.276,0.22,0.543,0.305l0.948,0.315
			c0.498,0.163,0.847,0.382,1.053,0.648c0.206,0.271,0.309,0.63,0.309,1.088c0,0.325-0.058,0.604-0.172,0.843
			c-0.112,0.24-0.271,0.44-0.474,0.596c-0.203,0.157-0.444,0.269-0.721,0.337c-0.279,0.068-0.586,0.104-0.919,0.104
			c-0.442,0-0.811-0.039-1.103-0.124c-0.294-0.08-0.528-0.208-0.699-0.371c-0.17-0.168-0.292-0.367-0.36-0.604
			c-0.067-0.238-0.103-0.507-0.103-0.8v-0.217h1.416v0.204H14.269z"/>
		<path fill="#FFA400" d="M19.7,40.051v0.654h0.016c0.176-0.287,0.374-0.493,0.591-0.62c0.218-0.121,0.488-0.182,0.809-0.182
			c0.649,0,1.128,0.248,1.432,0.747c0.305,0.503,0.458,1.318,0.458,2.445c0,1.125-0.153,1.937-0.458,2.43
			c-0.305,0.488-0.78,0.733-1.43,0.733c-0.297,0-0.551-0.055-0.76-0.164c-0.21-0.107-0.399-0.282-0.566-0.523h-0.024v2.511h-1.582
			v-8.034H19.7V40.051z M19.922,44.599c0.104,0.335,0.33,0.503,0.681,0.503c0.342,0,0.564-0.168,0.669-0.503
			c0.102-0.34,0.154-0.836,0.154-1.499c0-0.666-0.053-1.167-0.154-1.502c-0.105-0.336-0.328-0.503-0.669-0.503
			c-0.352,0-0.578,0.167-0.681,0.503c-0.103,0.335-0.152,0.836-0.152,1.502C19.769,43.763,19.82,44.259,19.922,44.599z"/>
		<path fill="#FFA400" d="M28.297,38.077v8.058h-1.58v-8.058H28.297z"/>
		<path fill="#FFA400" d="M29.387,41.781c0-0.354,0.057-0.65,0.168-0.889c0.115-0.236,0.268-0.429,0.461-0.58
			c0.199-0.147,0.426-0.252,0.689-0.314c0.262-0.067,0.541-0.095,0.844-0.095c0.473,0,0.855,0.044,1.145,0.131
			c0.291,0.091,0.518,0.218,0.68,0.384c0.16,0.168,0.268,0.365,0.324,0.596c0.059,0.227,0.086,0.48,0.086,0.751v3.195
			c0,0.286,0.016,0.507,0.041,0.666c0.027,0.16,0.072,0.327,0.156,0.509h-1.514c-0.053-0.099-0.092-0.201-0.121-0.311
			c-0.023-0.109-0.051-0.22-0.074-0.325H32.25c-0.182,0.315-0.395,0.525-0.635,0.62c-0.242,0.093-0.549,0.14-0.932,0.14
			c-0.275,0-0.508-0.047-0.699-0.14c-0.191-0.095-0.344-0.227-0.455-0.392c-0.115-0.168-0.201-0.352-0.258-0.558
			c-0.049-0.21-0.076-0.416-0.076-0.618c0-0.287,0.029-0.533,0.094-0.739c0.061-0.21,0.154-0.384,0.279-0.533
			c0.127-0.146,0.287-0.269,0.484-0.365c0.191-0.101,0.43-0.186,0.703-0.259l0.896-0.238c0.236-0.061,0.4-0.146,0.492-0.25
			c0.09-0.105,0.135-0.259,0.135-0.465c0-0.234-0.055-0.414-0.166-0.543c-0.111-0.134-0.301-0.2-0.572-0.2
			c-0.244,0-0.436,0.07-0.555,0.214c-0.121,0.144-0.184,0.342-0.184,0.58v0.172h-1.416V41.781L29.387,41.781z M31.932,43.296
			c-0.119,0.048-0.232,0.081-0.33,0.104c-0.328,0.069-0.559,0.18-0.695,0.342c-0.137,0.157-0.211,0.369-0.211,0.638
			c0,0.236,0.049,0.435,0.143,0.601c0.092,0.163,0.246,0.244,0.463,0.244c0.105,0,0.213-0.015,0.332-0.049
			c0.117-0.034,0.221-0.087,0.318-0.161c0.096-0.073,0.17-0.17,0.236-0.295c0.063-0.117,0.092-0.259,0.092-0.427v-1.195
			C32.172,43.179,32.057,43.243,31.932,43.296z"/>
		<path fill="#FFA400" d="M36.482,38.077v2.549h0.023c0.166-0.242,0.355-0.422,0.568-0.543c0.211-0.119,0.463-0.18,0.76-0.18
			c0.648,0,1.127,0.252,1.434,0.751s0.455,1.316,0.455,2.443c0,1.129-0.152,1.938-0.457,2.434c-0.305,0.484-0.781,0.728-1.432,0.728
			c-0.322,0-0.59-0.055-0.811-0.164c-0.215-0.115-0.414-0.311-0.59-0.596H36.42v0.636h-1.516v-8.056h1.578V38.077L36.482,38.077z
			 M36.637,44.599c0.102,0.335,0.33,0.503,0.68,0.503c0.348,0,0.566-0.168,0.672-0.503c0.104-0.34,0.158-0.836,0.158-1.499
			c0-0.666-0.055-1.167-0.158-1.502c-0.105-0.336-0.324-0.503-0.672-0.503c-0.35,0-0.578,0.167-0.68,0.503
			c-0.102,0.335-0.154,0.836-0.154,1.502C36.482,43.763,36.535,44.259,36.637,44.599z"/>
		<path fill="#FFA400" d="M42.23,46.135h-1.506V44.37h1.506V46.135z"/>
	</g>
</g>
</svg>
